HIERARCHY
ROOT hip
{
  OFFSET 0.00112043 5.09927 -9.65472
  CHANNELS 6 Xposition Yposition Zposition Zrotation Xrotation Yrotation
  JOINT abdomen
  {
    OFFSET 0 -1.186 -1.5018
    CHANNELS 3 Zrotation Xrotation Yrotation
    JOINT abdomen2
    {
      OFFSET 0 9.964 0.2134
      CHANNELS 3 Zrotation Xrotation Yrotation
      JOINT chest
      {
        OFFSET 0 13.134 -3.2573
        CHANNELS 3 Zrotation Xrotation Yrotation
        JOINT neck
        {
          OFFSET 0 20.686 -1.6905
          CHANNELS 3 Zrotation Xrotation Yrotation
          JOINT head
          {
            OFFSET 0 7.238 -0.1237
            CHANNELS 3 Zrotation Xrotation Yrotation
            End Site
            {
              OFFSET 0 0 0
            }
          }
        }
        JOINT lCollar
        {
          OFFSET 1.7069 20.075 5.0056
          CHANNELS 3 Zrotation Xrotation Yrotation
          JOINT lShldr
          {
            OFFSET 13.6458 -0.047 -4.849
            CHANNELS 3 Zrotation Xrotation Yrotation
            JOINT lForeArm
            {
              OFFSET 28.3255 -0.9759 2.2888
              CHANNELS 3 Zrotation Xrotation Yrotation
              JOINT lHand
              {
                OFFSET 22.1583 -0.53 10.8316
                CHANNELS 3 Zrotation Xrotation Yrotation
                JOINT lThumb1
                {
                  OFFSET 0.786 0.112 2.5817
                  CHANNELS 3 Zrotation Xrotation Yrotation
                  JOINT lThumb2
                  {
                    OFFSET 0.3601 -0.878 4.2331
                    CHANNELS 3 Zrotation Xrotation Yrotation
                    JOINT lThumb2_End
                    {
                      OFFSET 1.8127 -1.216 2.2227
                      CHANNELS 3 Zrotation Xrotation Yrotation
                      End Site
                      {
                        OFFSET 0.0181 -0.0122 0.0222
                      }
                    }
                  }
                }
                JOINT lCarpal1
                {
                  OFFSET 0.9571 1.114 1.7695
                  CHANNELS 3 Zrotation Xrotation Yrotation
                  JOINT lIndex1
                  {
                    OFFSET 4.1246 0.487 4.1451
                    CHANNELS 3 Zrotation Xrotation Yrotation
                    JOINT lIndex2
                    {
                      OFFSET 3.4052 -1.454 2.7682
                      CHANNELS 3 Zrotation Xrotation Yrotation
                      JOINT lIndex2_End
                      {
                        OFFSET 1.4531 -1.795 1.2713
                        CHANNELS 3 Zrotation Xrotation Yrotation
                        End Site
                        {
                          OFFSET 0.0145 -0.0179 0.0127
                        }
                      }
                    }
                  }
                  JOINT lMid1
                  {
                    OFFSET 5.6954 0.21 2.1184
                    CHANNELS 3 Zrotation Xrotation Yrotation
                    JOINT lMid2
                    {
                      OFFSET 3.9766 -1.54 2.3863
                      CHANNELS 3 Zrotation Xrotation Yrotation
                      JOINT lMid2_End
                      {
                        OFFSET 1.4042 -1.926 1.125
                        CHANNELS 3 Zrotation Xrotation Yrotation
                        End Site
                        {
                          OFFSET 0.014 -0.0193 0.0113
                        }
                      }
                    }
                  }
                }
                JOINT lCarpal2
                {
                  OFFSET 2.0956 0.66 -0.3894
                  CHANNELS 3 Zrotation Xrotation Yrotation
                  JOINT lRing1
                  {
                    OFFSET 5.0395 -0.09 2.4971
                    CHANNELS 3 Zrotation Xrotation Yrotation
                    JOINT lRing2
                    {
                      OFFSET 3.7921 -1.552 1.4806
                      CHANNELS 3 Zrotation Xrotation Yrotation
                      JOINT lRing2_End
                      {
                        OFFSET 1.4655 -1.808 0.9609
                        CHANNELS 3 Zrotation Xrotation Yrotation
                        End Site
                        {
                          OFFSET 0.0147 -0.0181 0.0096
                        }
                      }
                    }
                  }
                  JOINT lPinky1
                  {
                    OFFSET 4.9141 -1.269 0.3591
                    CHANNELS 3 Zrotation Xrotation Yrotation
                    JOINT lPinky2
                    {
                      OFFSET 3.1477 -1.685 0.8462
                      CHANNELS 3 Zrotation Xrotation Yrotation
                      JOINT lPinky2_End
                      {
                        OFFSET 0.8055 -1.585 0.7955
                        CHANNELS 3 Zrotation Xrotation Yrotation
                        End Site
                        {
                          OFFSET 0.0081 -0.0158 0.008
                        }
                      }
                    }
                  }
                }
              }
            }
          }
        }
        JOINT rCollar
        {
          OFFSET -1.7069 20.075 5.0056
          CHANNELS 3 Zrotation Xrotation Yrotation
          JOINT rShldr
          {
            OFFSET -13.6458 -0.047 -4.849
            CHANNELS 3 Zrotation Xrotation Yrotation
            JOINT rForeArm
            {
              OFFSET -28.3255 -0.9759 2.2888
              CHANNELS 3 Zrotation Xrotation Yrotation
              JOINT rHand
              {
                OFFSET -22.1583 -0.53 10.8316
                CHANNELS 3 Zrotation Xrotation Yrotation
                JOINT rThumb1
                {
                  OFFSET -0.786 0.112 2.5817
                  CHANNELS 3 Zrotation Xrotation Yrotation
                  JOINT rThumb2
                  {
                    OFFSET -0.3601 -0.878 4.2331
                    CHANNELS 3 Zrotation Xrotation Yrotation
                    JOINT rThumb2_End
                    {
                      OFFSET -1.8127 -1.216 2.2227
                      CHANNELS 3 Zrotation Xrotation Yrotation
                      End Site
                      {
                        OFFSET -0.0181 -0.0122 0.0222
                      }
                    }
                  }
                }
                JOINT rCarpal1
                {
                  OFFSET -0.9571 1.114 1.7695
                  CHANNELS 3 Zrotation Xrotation Yrotation
                  JOINT rIndex1
                  {
                    OFFSET -4.1246 0.487 4.1451
                    CHANNELS 3 Zrotation Xrotation Yrotation
                    JOINT rIndex2
                    {
                      OFFSET -3.4052 -1.454 2.7682
                      CHANNELS 3 Zrotation Xrotation Yrotation
                      JOINT rIndex2_End
                      {
                        OFFSET -1.4531 -1.795 1.2713
                        CHANNELS 3 Zrotation Xrotation Yrotation
                        End Site
                        {
                          OFFSET -0.0145 -0.018 0.0127
                        }
                      }
                    }
                  }
                  JOINT rMid1
                  {
                    OFFSET -5.6954 0.21 2.1184
                    CHANNELS 3 Zrotation Xrotation Yrotation
                    JOINT rMid2
                    {
                      OFFSET -3.9766 -1.54 2.3863
                      CHANNELS 3 Zrotation Xrotation Yrotation
                      JOINT rMid2_End
                      {
                        OFFSET -1.4042 -1.926 1.125
                        CHANNELS 3 Zrotation Xrotation Yrotation
                        End Site
                        {
                          OFFSET -0.014 -0.0193 0.0113
                        }
                      }
                    }
                  }
                }
                JOINT rCarpal2
                {
                  OFFSET -2.0956 0.66 -0.3894
                  CHANNELS 3 Zrotation Xrotation Yrotation
                  JOINT rRing1
                  {
                    OFFSET -5.0395 -0.09 2.4971
                    CHANNELS 3 Zrotation Xrotation Yrotation
                    JOINT rRing2
                    {
                      OFFSET -3.7921 -1.552 1.4806
                      CHANNELS 3 Zrotation Xrotation Yrotation
                      JOINT rRing2_End
                      {
                        OFFSET -1.4655 -1.808 0.9609
                        CHANNELS 3 Zrotation Xrotation Yrotation
                        End Site
                        {
                          OFFSET -0.0147 -0.0181 0.0096
                        }
                      }
                    }
                  }
                  JOINT rPinky1
                  {
                    OFFSET -4.9141 -1.269 0.3592
                    CHANNELS 3 Zrotation Xrotation Yrotation
                    JOINT rPinky2
                    {
                      OFFSET -3.1477 -1.685 0.8462
                      CHANNELS 3 Zrotation Xrotation Yrotation
                      JOINT rPinky2_End
                      {
                        OFFSET -0.8055 -1.585 0.7955
                        CHANNELS 3 Zrotation Xrotation Yrotation
                        End Site
                        {
                          OFFSET -0.0081 -0.0158 0.008
                        }
                      }
                    }
                  }
                }
              }
            }
          }
        }
      }
    }
  }
  JOINT lThigh
  {
    OFFSET 8.367 -8.2066 0.5982
    CHANNELS 3 Zrotation Xrotation Yrotation
    JOINT lShin
    {
      OFFSET 2.1923 -43.463 -0.4932
      CHANNELS 3 Zrotation Xrotation Yrotation
      JOINT lFoot
      {
        OFFSET 0.7333 -45.8593 -2.6451
        CHANNELS 3 Zrotation Xrotation Yrotation
        End Site
        {
          OFFSET 2.6618 -4.2699 12.3931
        }
      }
    }
  }
  JOINT rThigh
  {
    OFFSET -8.367 -8.2066 0.5982
    CHANNELS 3 Zrotation Xrotation Yrotation
    JOINT rShin
    {
      OFFSET -2.1923 -43.463 -0.4931
      CHANNELS 3 Zrotation Xrotation Yrotation
      JOINT rFoot
      {
        OFFSET -0.7333 -45.8593 -2.6451
        CHANNELS 3 Zrotation Xrotation Yrotation
        End Site
        {
          OFFSET -2.6618 -4.2699 12.3931
        }
      }
    }
  }
}
MOTION
Frames:	5
Frame Time:	0.0333333
1.06227 35.8164 -5.81712 -0 -22.1265 -0 -0.956755 18.222 0.218419 -2.17128 36.4368 0.848127 -2.17128 36.4368 0.848126 -15.5806 -10.7694 -17.1784 4.54238e-006 -37.6702 5.44897e-006 -12.851 -15.3579 -20.4571 18.8352 20.7483 -49.1075 30.3415 -19.5279 -11.0335 36.5743 -10.4256 -9.72879 -7.74778e-007 4.12714e-007 2.4299e-008 9.17462e-007 -2.54691e-007 -3.92122e-008 2.85369e-007 3.16047e-007 -2.98264e-008 -7.95139e-016 -4.96962e-016 7.95139e-016 -7.74778e-007 4.12714e-007 2.4299e-008 9.17462e-007 -2.54691e-007 -3.92122e-008 2.85369e-007 3.16047e-007 -2.98264e-008 -7.74778e-007 4.12714e-007 2.4299e-008 9.17462e-007 -2.54691e-007 -3.92122e-008 2.85369e-007 3.16047e-007 -2.98264e-008 -7.95139e-016 -4.96962e-016 7.95139e-016 -7.74778e-007 4.12714e-007 2.4299e-008 9.17462e-007 -2.54691e-007 -3.92122e-008 2.85369e-007 3.16047e-007 -2.98264e-008 -7.74778e-007 4.12714e-007 2.4299e-008 9.17462e-007 -2.54691e-007 -3.92122e-008 2.85369e-007 3.16047e-007 -2.98264e-008 12.708 -15.5122 22.0394 -18.7042 20.9313 49.7748 -31.458 -18.9728 8.56661 -36.8458 -11.8909 10.487 -1.54703e-007 2.05496e-007 9.21863e-007 2.64834e-031 3.18055e-015 -4.77083e-015 7.95139e-016 3.18055e-015 -1.59028e-015 -1.59028e-015 -3.97569e-016 1.59028e-015 -1.54703e-007 2.05496e-007 9.21863e-007 7.95139e-016 3.18055e-015 -4.77083e-015 7.95139e-016 2.98177e-015 -0 -1.54703e-007 2.05496e-007 9.21863e-007 7.95139e-016 3.18055e-015 -4.77083e-015 7.95139e-016 2.98177e-015 -0 -1.59028e-015 -3.97569e-016 1.59028e-015 -1.54703e-007 2.05496e-007 9.21863e-007 7.95139e-016 3.18055e-015 -4.77083e-015 7.95139e-016 2.98177e-015 -0 -1.54703e-007 2.05496e-007 9.21863e-007 7.95139e-016 3.18055e-015 -4.77083e-015 7.95139e-016 2.98177e-015 -0 84.394 -47.092 96.8874 161.441 73.006 -159.017 5.76426 -9.13468 -0.397842 -84.3921 -46.9799 -96.9688 -161.322 72.9879 158.904 -5.84823 -9.15306 0.444867 
1.06228 35.9423 -5.79007 -0 -21.8761 -0 -0.956754 18.222 0.218419 -2.17128 36.4368 0.848126 -2.17128 36.4368 0.848128 -15.505 -10.5272 -17.0633 -6.9534e-006 -37.5463 -5.72268e-006 -12.8338 -15.4725 -20.2646 18.8352 20.7483 -49.1074 30.5188 -19.6457 -11.2285 36.6734 -10.3341 -9.59993 1.42755e-007 1.57963e-007 -1.49013e-008 -1.42755e-007 -1.57963e-007 1.49013e-008 6.36111e-015 -2.5842e-015 -9.54166e-015 -7.95139e-016 1.19271e-015 2.38542e-015 1.42755e-007 1.57963e-007 -1.49013e-008 -1.42755e-007 -1.57963e-007 1.49013e-008 7.15625e-015 -4.17448e-015 -1.11319e-014 1.42755e-007 1.57963e-007 -1.49013e-008 -1.42755e-007 -1.57963e-007 1.49013e-008 7.15625e-015 -4.17448e-015 -1.11319e-014 -7.95139e-016 1.19271e-015 2.38542e-015 1.42755e-007 1.57963e-007 -1.49013e-008 -1.42755e-007 -1.57963e-007 1.49013e-008 7.15625e-015 -4.17448e-015 -1.11319e-014 1.42755e-007 1.57963e-007 -1.49013e-008 -1.42755e-007 -1.57963e-007 1.49013e-008 7.15625e-015 -4.17448e-015 -1.11319e-014 12.6945 -15.6217 21.7909 -18.7042 20.9313 49.7748 -31.672 -19.1135 8.79182 -36.9355 -11.7634 10.3227 -0 0 3.18055e-015 2.18218e-007 3.86218e-007 -8.86813e-007 -6.36111e-015 3.57812e-015 1.11319e-014 0 1.98785e-016 -0 4.77083e-015 2.52457e-014 3.18055e-015 2.18218e-007 3.86218e-007 -8.86813e-007 -5.56597e-015 3.77691e-015 1.11319e-014 4.77083e-015 2.52457e-014 3.18055e-015 2.18218e-007 3.86218e-007 -8.86813e-007 -5.56597e-015 3.77691e-015 1.11319e-014 0 1.98785e-016 -0 4.77083e-015 2.52457e-014 3.18055e-015 2.18218e-007 3.86218e-007 -8.86813e-007 -5.56597e-015 3.77691e-015 1.11319e-014 4.77083e-015 2.52457e-014 3.18055e-015 2.18218e-007 3.86218e-007 -8.86813e-007 -5.56597e-015 3.77691e-015 1.11319e-014 84.4338 -47.1904 96.9785 161.354 73.1289 -158.943 5.66481 -9.15926 -0.348483 -84.4316 -47.0784 -97.0597 -161.233 73.1106 158.829 -5.74821 -9.17725 0.395688 
1.06229 36.0681 -5.76299 -0 -21.6257 -0 -0.956753 18.222 0.218418 -2.17128 36.4368 0.848126 -2.17127 36.4368 0.848125 -15.4299 -10.2844 -16.9486 -6.75681e-006 -37.4224 -2.22747e-006 -12.8158 -15.5871 -20.0719 18.8352 20.7483 -49.1075 30.6959 -19.764 -11.4231 36.7724 -10.2424 -9.47129 3.86217e-032 2.78299e-015 -7.95139e-016 1.93108e-032 1.39149e-015 -7.95139e-016 1.59028e-015 1.49089e-015 -1.59028e-015 -1.59028e-015 -5.96354e-016 -7.95139e-016 4.77083e-015 6.06293e-015 1.59028e-015 1.59028e-015 4.57205e-015 -7.95139e-016 0 2.48481e-015 -0 4.77083e-015 6.06293e-015 1.59028e-015 1.59028e-015 4.57205e-015 -7.95139e-016 0 2.48481e-015 -0 -1.59028e-015 -5.96354e-016 -7.95139e-016 4.77083e-015 6.06293e-015 1.59028e-015 1.59028e-015 4.57205e-015 -7.95139e-016 0 2.48481e-015 -0 4.77083e-015 6.06293e-015 1.59028e-015 1.59028e-015 4.57205e-015 -7.95139e-016 0 2.48481e-015 -0 12.6806 -15.7311 21.5422 -18.7042 20.9313 49.7749 -31.8856 -19.2551 9.01667 -37.0247 -11.6357 10.1588 -3.18055e-015 -1.8487e-014 -0 -3.97569e-015 -1.8487e-014 -4.77083e-015 -3.18055e-015 -1.8487e-014 -4.77083e-015 7.95139e-016 -1.98785e-016 3.18055e-015 -3.97569e-015 2.5842e-015 9.54166e-015 -3.18055e-015 -1.82882e-014 -4.77083e-015 -3.97569e-015 -1.82882e-014 -4.77083e-015 -3.97569e-015 2.5842e-015 9.54166e-015 -3.18055e-015 -1.82882e-014 -4.77083e-015 -3.97569e-015 -1.82882e-014 -4.77083e-015 7.95139e-016 -1.98785e-016 3.18055e-015 -3.97569e-015 2.5842e-015 9.54166e-015 -3.18055e-015 -1.82882e-014 -4.77083e-015 -3.97569e-015 -1.82882e-014 -4.77083e-015 -3.97569e-015 2.5842e-015 9.54166e-015 -3.18055e-015 -1.82882e-014 -4.77083e-015 -3.97569e-015 -1.82882e-014 -4.77083e-015 84.4738 -47.2889 97.0699 161.265 73.2517 -158.867 5.56539 -9.18396 -0.299122 -84.4715 -47.1768 -97.151 -161.144 73.2333 158.752 -5.64821 -9.2016 0.346443 
1.0623 36.1938 -5.73589 -0 -21.3754 -0 -0.956752 18.222 0.218418 -2.17128 36.4368 0.848127 -2.17127 36.4367 0.848125 -15.3554 -10.0416 -16.8342 -7.05639e-006 -37.2983 -4.64405e-006 -12.7971 -15.7016 -19.8791 18.8352 20.7483 -49.1075 30.8726 -19.8828 -11.6176 36.8711 -10.1505 -9.34286 -1.42892e-007 -1.57847e-007 1.4876e-008 -2.38542e-015 2.08724e-015 -1.59028e-015 7.86227e-032 1.88845e-015 -2.38542e-015 -1.79315e-032 -1.2921e-015 -7.95139e-016 -1.42892e-007 -1.57847e-007 1.4876e-008 -2.38542e-015 3.18055e-015 -7.95139e-016 -2.38542e-015 3.8763e-015 -2.38542e-015 -1.42892e-007 -1.57847e-007 1.4876e-008 -2.38542e-015 3.18055e-015 -7.95139e-016 -2.38542e-015 3.8763e-015 -2.38542e-015 -1.79315e-032 -1.2921e-015 -7.95139e-016 -1.42892e-007 -1.57847e-007 1.4876e-008 -2.38542e-015 3.18055e-015 -7.95139e-016 -2.38542e-015 3.8763e-015 -2.38542e-015 -1.42892e-007 -1.57847e-007 1.4876e-008 -2.38542e-015 3.18055e-015 -7.95139e-016 -2.38542e-015 3.8763e-015 -2.38542e-015 12.6661 -15.8404 21.2934 -18.7042 20.9313 49.7749 -32.0988 -19.3974 9.24114 -37.1136 -11.5077 9.99513 7.95139e-016 0 -0 -1.59028e-015 1.98785e-016 1.59028e-015 -7.95139e-016 5.96354e-016 1.59028e-015 7.95139e-016 -3.97569e-016 -0 -2.38542e-015 2.42517e-014 1.59028e-014 -2.38542e-015 1.98785e-016 -1.59028e-015 -2.38542e-015 3.97569e-016 -0 -2.38542e-015 2.42517e-014 1.59028e-014 -2.38542e-015 1.98785e-016 -1.59028e-015 -2.38542e-015 3.97569e-016 -0 7.95139e-016 -3.97569e-016 -0 -2.38542e-015 2.42517e-014 1.59028e-014 -2.38542e-015 1.98785e-016 -1.59028e-015 -2.38542e-015 3.97569e-016 -0 -2.38542e-015 2.42517e-014 1.59028e-014 -2.38542e-015 1.98785e-016 -1.59028e-015 -2.38542e-015 3.97569e-016 -0 84.5145 -47.3872 97.1619 161.175 73.3744 -158.79 5.46593 -9.2087 -0.249824 -84.5118 -47.2752 -97.2427 -161.053 73.356 158.674 -5.54815 -9.22589 0.29729 
1.06232 36.3194 -5.70879 -0 -21.1251 -0 -0.956754 18.222 0.218418 -2.17128 36.4368 0.848126 -2.17128 36.4368 0.848126 -15.2813 -9.7995 -16.7202 3.93631e-007 -37.1743 3.84844e-006 -12.7776 -15.8161 -19.6862 18.8352 20.7483 -49.1075 31.049 -20.0023 -11.8118 36.9695 -10.0583 -9.2146 -7.02641e-007 4.92938e-007 1.34632e-008 7.02641e-007 -4.92938e-007 -1.34632e-008 7.14792e-008 7.88952e-008 -7.43131e-009 -7.95139e-016 -1.09332e-015 7.95139e-016 -7.02641e-007 4.92938e-007 1.34632e-008 7.02641e-007 -4.92938e-007 -1.34632e-008 7.14792e-008 7.88952e-008 -7.43131e-009 -7.02641e-007 4.92938e-007 1.34632e-008 7.02641e-007 -4.92938e-007 -1.34632e-008 7.14792e-008 7.88952e-008 -7.43131e-009 -7.95139e-016 -1.09332e-015 7.95139e-016 -7.02641e-007 4.92938e-007 1.34632e-008 7.02641e-007 -4.92938e-007 -1.34632e-008 7.14792e-008 7.88952e-008 -7.43131e-009 -7.02641e-007 4.92938e-007 1.34632e-008 7.02641e-007 -4.92938e-007 -1.34632e-008 7.14792e-008 7.88952e-008 -7.43131e-009 12.6512 -15.9497 21.0444 -18.7042 20.9313 49.7749 -32.3115 -19.5404 9.46524 -37.202 -11.3795 9.83173 7.95139e-016 2.44505e-014 -0 -8.8946e-008 -7.31768e-010 -5.26211e-006 1.59028e-015 -4.57205e-015 3.18055e-015 0 3.97569e-016 -0 -1.54763e-029 5.06901e-014 1.74931e-014 -8.8946e-008 -7.31768e-010 -5.26211e-006 -1.269e-031 -4.57205e-015 -1.59028e-015 -1.54763e-029 5.06901e-014 1.74931e-014 -8.8946e-008 -7.31768e-010 -5.26211e-006 -1.269e-031 -4.57205e-015 -1.59028e-015 0 3.97569e-016 -0 -1.54763e-029 5.06901e-014 1.74931e-014 -8.8946e-008 -7.31768e-010 -5.26211e-006 -1.269e-031 -4.57205e-015 -1.59028e-015 -1.54763e-029 5.06901e-014 1.74931e-014 -8.8946e-008 -7.31768e-010 -5.26211e-006 -1.269e-031 -4.57205e-015 -1.59028e-015 84.5555 -47.4853 97.2542 161.084 73.497 -158.711 5.36643 -9.23346 -0.200514 -84.5525 -47.3734 -97.3346 -160.961 73.4785 158.595 -5.44807 -9.25032 0.248167 
